PathFileType	4	(X/Y/Z)	TVC_60_BWA03_walk_RCNL2025.trc
DataRate	CameraRate	NumFrames	NumMarkers	Units	OrigDataRate	OrigDataStartFrame	OrigNumFrames
100	100	10	27	mm	100	241	275
Frame#	Time	R_Shoulder			L_Shoulder			C7			J_Notch			R_Elbow			L_Elbow			R_Wrist			L_Wrist			R_Asis			L_Asis			R_Psis			L_Psis			Sacral			Thoracic			Sternum			R_Thigh_Lateral			R_Knee_Lateral			R_Shank_Lateral			R_Ankle_Lateral			R_Heel			R_Toe			L_Thigh_Lateral			L_Knee_Lateral			L_Shank_Lateral			L_Ankle_Lateral			L_Heel			L_Toe		
		X1	Y1	Z1	X2	Y2	Z2	X3	Y3	Z3	X4	Y4	Z4	X5	Y5	Z5	X6	Y6	Z6	X7	Y7	Z7	X8	Y8	Z8	X9	Y9	Z9	X10	Y10	Z10	X11	Y11	Z11	X12	Y12	Z12	X13	Y13	Z13	X14	Y14	Z14	X15	Y15	Z15	X16	Y16	Z16	X17	Y17	Z17	X18	Y18	Z18	X19	Y19	Z19	X20	Y20	Z20	X21	Y21	Z21	X22	Y22	Z22	X23	Y23	Z23	X24	Y24	Z24	X25	Y25	Z25	X26	Y26	Z26	X27	Y27	Z27
241	2.40000000	240.620819	1299.574585	135.076340	188.862167	1339.467773	-212.760834	151.264694	1384.464233	-31.937605	266.369476	1261.171143	-50.232487	213.883453	969.096191	223.907379	114.175438	1000.046021	-263.353760	316.627411	753.688324	220.102058	173.792374	777.858673	-315.785782	266.861115	895.479004	95.198204	253.862473	907.759949	-188.696869	86.272285	888.256775	21.734621	82.971054	889.855957	-88.605087	84.621670	889.056366	-33.435233	100.384987	1173.785645	-33.641685	302.285858	1070.788452	-45.102962	194.499695	581.060303	178.597427	169.478561	420.034698	115.642387	-6.930621	291.821472	145.876633	-151.873352	193.714081	74.101357	-173.636200	227.448288	23.960194	-114.221169	66.433662	56.278240	262.216400	622.514465	-247.334579	338.546600	446.266174	-170.378082	320.901550	252.548019	-196.345139	306.610779	57.108639	-116.660263	260.924225	57.165829	-74.791168	433.509399	42.492580	-103.551132
242	2.41000000	250.694550	1300.984497	133.966141	198.313522	1340.484863	-213.786423	160.870850	1385.617188	-33.010647	275.833832	1262.183105	-51.328125	219.007233	970.502930	222.061707	124.799217	1000.812500	-264.985077	317.004120	752.765717	219.859886	185.726097	779.015747	-317.415588	275.394958	896.365356	94.133720	261.946045	909.097961	-189.864594	94.852966	889.157166	21.207382	91.265297	891.315613	-89.129318	93.059132	890.236389	-33.960968	109.638954	1175.207275	-34.386925	311.235535	1071.682861	-46.122940	209.267319	581.044617	178.080963	187.934402	419.809357	115.593452	11.013755	292.969391	145.461380	-136.478088	199.178177	73.276222	-157.359100	232.915924	22.620193	-101.290398	71.033768	57.815708	266.215759	622.478333	-247.998383	341.842682	445.902191	-170.798798	322.519348	252.283112	-196.625977	306.626434	57.083626	-116.551758	260.876007	57.242088	-74.738297	433.501007	42.453514	-103.502098
243	2.42000000	260.600555	1302.296387	132.959152	207.795380	1341.451538	-214.739960	170.431366	1386.742065	-34.025543	285.211700	1263.108643	-52.316589	224.055084	971.901550	220.302734	135.476120	1001.549377	-266.642212	317.277145	751.953430	219.682892	197.751595	780.155701	-319.040512	283.662140	897.227539	93.199066	269.898041	910.256226	-190.920731	103.193710	890.027527	20.663446	99.349182	892.716797	-89.658997	101.271446	891.372162	-34.497775	118.778656	1176.614746	-35.136787	319.995422	1072.440430	-47.021725	223.875656	581.169312	177.571045	206.536530	419.751129	115.451042	29.321533	293.864471	144.802002	-120.359322	204.077209	72.171577	-140.601456	237.493912	20.940489	-86.170738	75.765388	59.575806	270.581421	622.595032	-248.627151	345.015289	445.513611	-171.163666	324.087708	252.018372	-196.878113	306.664734	57.054447	-116.439178	260.855804	57.325684	-74.674538	433.513977	42.389286	-103.453903
244	2.43000000	270.327789	1303.499634	132.058090	217.302063	1342.360474	-215.620270	179.940247	1387.828979	-34.980511	294.499939	1263.942017	-53.195705	229.028992	973.280334	218.637695	146.206116	1002.249695	-268.321991	317.470810	751.250916	219.571266	209.862862	781.269928	-320.654770	291.682983	898.053833	92.384834	277.727386	911.235718	-191.864822	111.309532	890.867615	20.108614	107.237221	894.055054	-90.191162	109.273376	892.461334	-35.041274	127.804703	1177.994995	-35.891415	328.573486	1073.061279	-47.797974	238.206314	581.459534	177.065247	225.212509	419.890991	115.226944	47.868473	294.628510	143.934372	-103.541588	208.291794	70.847054	-123.418137	241.070023	19.002594	-68.903450	80.470612	61.505775	275.347809	622.861328	-249.218491	348.108582	445.105865	-171.472504	325.643158	251.759674	-197.098068	306.731476	57.027515	-116.320305	260.866730	57.419598	-74.599487	433.546417	42.310638	-103.402130
245	2.44000000	279.868774	1304.587402	131.263931	226.827515	1343.206177	-216.426743	189.392365	1388.869629	-35.874279	303.696625	1264.679688	-53.964645	233.930649	974.629822	217.072388	156.988541	1002.907959	-270.020416	317.608734	750.657074	219.525322	222.053665	782.351166	-322.252487	299.479767	898.834656	91.679161	285.441467	912.043152	-192.700806	119.217651	891.678162	19.549999	114.945770	895.327332	-90.721672	117.081711	893.502747	-35.585836	136.718887	1179.336548	-36.649986	336.979614	1073.549194	-48.452785	252.165619	581.922424	176.558533	243.894730	420.254089	114.934914	66.558525	295.368500	142.906296	-86.041367	211.705963	69.368729	-105.833511	243.560333	16.899418	-49.620693	84.980453	63.531357	280.500610	623.260254	-249.767151	351.155121	444.683929	-171.725510	327.209808	251.510971	-197.282730	306.827911	57.007240	-116.193520	260.908691	57.524948	-74.512413	433.595001	42.226578	-103.343323
246	2.45000000	289.219452	1305.555786	130.576141	236.365479	1343.985229	-217.159195	198.783493	1389.856567	-36.706051	312.800903	1265.319824	-54.623859	238.761627	975.942566	215.611237	167.821976	1003.519958	-271.732574	317.713684	750.170288	219.545456	234.317535	783.393921	-323.827713	307.075867	899.562439	91.068756	293.046570	912.690430	-193.436066	126.936798	892.460449	18.995493	122.492325	896.532166	-91.245514	124.714561	894.496307	-36.125010	145.524094	1180.629639	-37.410732	345.225342	1073.911133	-48.989548	265.696930	582.547791	176.042770	262.521027	420.858582	114.589874	85.329590	296.151276	141.773132	-67.869156	214.214096	67.803841	-87.846695	244.910172	14.726726	-28.521984	89.127937	65.564941	285.986633	623.764587	-250.267136	354.176636	444.252625	-171.923782	328.798737	251.274490	-197.429962	306.951263	56.996094	-116.058044	260.979034	57.641571	-74.412781	433.655914	42.143921	-103.275261
247	2.46000000	298.379059	1306.403931	129.992767	245.909622	1344.695312	-217.817871	208.110367	1390.783813	-37.475471	321.813080	1265.862183	-55.174984	243.523514	977.213440	214.257263	178.704132	1004.083130	-273.452942	317.807404	749.788513	219.632179	246.647705	784.394012	-325.374603	314.495056	900.231689	90.539993	300.548615	913.193115	-194.080338	134.486664	893.215759	18.453259	129.894943	897.669006	-91.757126	132.190804	895.442383	-36.651934	154.224136	1181.865601	-38.171028	353.323456	1074.156128	-49.413658	278.783478	583.311218	175.507278	281.034882	421.714722	114.207207	104.154335	296.987244	140.591232	-49.031818	215.728012	66.215942	-69.438782	245.093201	12.574688	-5.845294	92.760201	67.514519	291.726898	624.341125	-250.713974	357.185425	443.816559	-172.069748	330.409424	251.050858	-197.539291	307.095520	56.994934	-115.914078	261.073547	57.768574	-74.300667	433.725311	42.067272	-103.197304
248	2.47000000	307.349670	1307.133545	129.510712	255.453796	1345.335815	-218.403366	217.370544	1391.646362	-38.182549	330.734375	1266.308105	-55.620728	248.218094	978.439087	213.012054	189.631912	1004.595947	-275.175232	317.910568	749.509216	219.786072	259.037102	785.348816	-326.887466	321.760773	900.838806	90.079788	307.953644	913.569336	-194.644501	141.887283	893.944702	17.931328	137.171768	898.738159	-92.250603	139.529526	896.341431	-37.159637	162.823669	1183.037476	-38.927456	361.287567	1074.294800	-49.732151	291.442322	584.180725	174.940842	299.385254	422.824677	113.802170	123.036705	297.827637	139.410721	-29.534334	216.182083	64.661270	-50.580017	244.109085	10.521230	18.160419	95.747810	69.292931	297.629639	624.954224	-251.106430	360.186371	443.380310	-172.167633	332.033173	250.839340	-197.612137	307.252777	57.003464	-115.762794	261.186890	57.904869	-74.177040	433.799408	41.999462	-103.110413
249	2.48000000	316.136169	1307.748901	129.125961	264.992035	1345.907104	-218.916580	226.562454	1392.440430	-38.827633	339.566925	1266.660034	-55.964718	252.847656	979.617859	211.875961	200.601379	1005.057922	-276.892639	318.042786	749.329468	220.007820	271.478317	786.256836	-328.360840	328.895599	901.381897	89.676407	315.268280	913.838806	-195.139435	149.158615	894.647339	17.437269	144.340576	899.740479	-92.719902	146.749596	897.193909	-37.641316	171.328033	1184.139648	-39.675919	369.131683	1074.338989	-49.953243	303.712616	585.122925	174.335052	317.526215	424.182953	113.389503	142.004868	298.576599	138.271530	-9.381008	215.536591	63.186676	-31.236258	241.980453	8.628131	43.256779	97.990768	70.826408	303.602203	625.568848	-251.447021	363.179108	442.948151	-172.223389	333.656860	250.638138	-197.651917	307.414673	57.020851	-115.606155	261.313263	58.049679	-74.043625	433.874603	41.942139	-103.017006
250	2.49000000	324.745605	1308.255493	128.833786	274.518677	1346.410400	-219.358612	235.685318	1393.163208	-39.411316	348.313721	1266.921509	-56.211349	257.415131	980.749756	210.848190	211.607819	1005.469666	-278.597870	318.222565	749.245758	220.298210	283.963593	787.117767	-329.789658	335.920898	901.860352	89.320015	322.499939	914.021301	-195.575165	156.320160	895.322510	16.977922	151.418533	900.677307	-93.159019	153.869347	897.999908	-38.090549	179.743164	1185.167725	-40.411766	376.869965	1074.300293	-50.085857	315.643921	586.109192	173.688004	335.416565	425.776825	112.983063	161.102356	299.111298	137.203400	11.423443	213.779724	61.828869	-11.374032	238.749405	6.939540	69.230797	99.421440	72.060646	309.560150	626.152954	-251.741577	366.160309	442.523773	-172.244324	335.266937	250.444626	-197.663345	307.573761	57.046177	-115.446602	261.446899	58.202854	-73.902512	433.947388	41.896202	-102.920471
